<svg height="512pt" viewBox="-26 0 512 512.06568" width="512pt" xmlns="http://www.w3.org/2000/svg"><path d="m452.308594 315.632812c-9.738282.003907-19.46875.6875-29.113282 2.050782-3.585937-8.789063-7.832031-17.296875-12.695312-25.453125 5.617188-18.214844 27.609375-94.875 8.652344-121.027344-4.03125-5.828125-10.703125-9.265625-17.789063-9.160156-12.679687 1.039062-24.996093 4.746093-36.144531 10.882812-21.8125-30.9375-60.355469-52.675781-104.296875-59.648437-.140625-11.625-1.601563-23.199219-4.351563-34.496094-1.914062-9.46875 1.59375-19.214844 9.097657-25.292969 10.65625-7.164062 28.027343 3.917969 35.007812 9.027344 7.382813 5.398437 17.085938 6.445313 25.453125 2.75 8.367188-3.699219 14.128906-11.578125 15.109375-20.671875s-2.960937-18.023438-10.347656-23.421875c-46.816406-34.257813-81.136719-18.617187-93.78125-10.261719-25.332031 18.066406-37.269531 49.625-30.230469 79.929688 1.695313 6.917968 2.675782 13.992187 2.929688 21.113281-48.011719 5.09375-90.71875 27.699219-114.105469 60.898437-11.0625-6.136718-23.316406-9.820312-35.925781-10.808593-7.097656-.109375-13.785156 3.328125-17.824219 9.167969-18.878906 26.027343 3 102.476562 8.597656 120.675781-4.9375 8.257812-9.242187 16.882812-12.871093 25.796875-9.640626-1.363282-19.363282-2.046875-29.101563-2.050782-4.710937 0-8.53125 3.820313-8.53125 8.535157 0 4.710937 3.820313 8.53125 8.53125 8.53125 7.769531.011719 15.53125.496093 23.242187 1.457031-4.015624 13.375-6.097656 27.253906-6.179687 41.21875v.0625c-7.691406 2.269531-15.027344 5.601562-21.800781 9.890625-2.539063 1.691406-3.984375 4.609375-3.7890628 7.652344.1953128 3.042969 1.9999998 5.753906 4.7343748 7.105469 2.734375 1.351562 5.984375 1.136718 8.519532-.554688 4.292968-2.742188 8.898437-4.960938 13.714843-6.609375 1.5 10.363281 4.46875 20.460937 8.824219 29.984375-15.796875 10.359375-25.878906 27.484375-27.269531 46.324219 0 26.320312 26.160156 42.667969 68.269531 42.667969 18.992188 1.167968 37.859375-3.804688 53.808594-14.179688 32.355468 9.742188 66 14.523438 99.789062 14.179688 33.789063.34375 67.433594-4.4375 99.789063-14.179688 15.953125 10.375 34.816406 15.347656 53.8125 14.179688 42.109375 0 68.265625-16.347657 68.265625-42.667969-1.390625-18.839844-11.46875-35.964844-27.269532-46.324219 4.355469-9.523438 7.324219-19.621094 8.820313-29.984375 4.820313 1.648437 9.425781 3.867187 13.714844 6.609375 3.921875 2.609375 9.214843 1.546875 11.828125-2.371094 2.613281-3.917968 1.558594-9.214844-2.359375-11.832031-6.773438-4.289063-14.109375-7.617187-21.800781-9.886719v-.0625c-.078126-13.964844-2.15625-27.847656-6.171876-41.222656 7.707032-.960938 15.46875-1.449219 23.238282-1.457031 4.714844 0 8.535156-3.820313 8.535156-8.535157 0-4.710937-3.820312-8.53125-8.535156-8.53125zm-228.859375-228.863281c-5.472657-23.34375 3.65625-47.683593 23.132812-61.664062 11.925781-7.882813 37.429688-17.089844 74.226563 9.847656 3.800781 2.753906 4.652344 8.0625 1.910156 11.871094-2.792969 3.816406-8.136719 4.667969-11.980469 1.910156-21.179687-15.488281-40.570312-18.84375-54.570312-9.425781-13.460938 10.074218-19.789063 27.089844-16.183594 43.511718 2.289063 9.347657 3.589844 18.90625 3.882813 28.527344-4.445313-.308594-8.914063-.511718-13.425782-.511718-1.210937 0-2.40625.078124-3.609375.101562-.3125-8.152344-1.445312-16.246094-3.382812-24.167969zm6.992187 41.128907c49.792969 0 95.589844 20.578124 119.542969 53.039062-3.5625 2.011719-7.191406 4.128906-10.953125 6.433594-2.265625-5.308594-6.03125-9.839844-10.839844-13.039063-10.609375-6.90625-23.941406-8.152343-35.648437-3.332031l-30.890625 12.714844c-3.167969-4.710938-8.46875-7.535156-14.144532-7.535156h-34.132812c-5.675781 0-10.980469 2.824218-14.148438 7.53125l-30.890624-12.714844c-11.707032-4.828125-25.039063-3.578125-35.652344 3.332031-4.769532 3.175781-8.515625 7.667969-10.785156 12.929687-3.726563-2.265624-7.332032-4.355468-10.960938-6.394531 23.902344-32.414062 69.671875-52.964843 119.503906-52.964843zm17.082032 111.488281h-34.148438v-46.140625h34.132812v1.929687l.011719 42.222657v.132812zm-85.675782 6.464843c-6.449218 2.640626-13.773437 1.996094-19.664062-1.726562-3.28125-1.957031-5.382813-5.410156-5.609375-9.226562v-37.160157c.226562-3.816406 2.324219-7.273437 5.609375-9.226562 5.886718-3.734375 13.214844-4.378907 19.664062-1.730469l34.460938 14.183594v30.710937zm102.726563-44.886718 34.464843-14.183594c6.445313-2.640625 13.773438-1.996094 19.660157 1.730469 3.285156 1.953125 5.386719 5.410156 5.609375 9.226562v37.160157c-.222656 3.816406-2.324219 7.269531-5.609375 9.226562-5.886719 3.722656-13.210938 4.367188-19.660157 1.726562l-34.464843-14.175781zm-238.933594 268.265625c0-19.199219 23.628906-42.664063 51.203125-42.664063s51.199219 23.464844 51.199219 42.664063c0 12.421875-11.476563 19.558593-26.363281 23 .488281-1.941407.742187-3.929688.761718-5.929688v-17.070312c0-4.710938-3.820312-8.53125-8.53125-8.53125-4.714844 0-8.535156 3.820312-8.535156 8.53125v17.070312c0 4.710938-3.820312 8.53125-8.53125 8.53125-4.714844 0-8.535156-3.820312-8.535156-8.53125v-17.070312c0-4.710938-3.820313-8.53125-8.53125-8.53125-4.714844 0-8.535156 3.820312-8.535156 8.53125v17.070312c.019531 2 .277343 3.988281.761718 5.929688-14.882812-3.445313-26.363281-10.578125-26.363281-23zm409.601563 0c0 12.421875-11.476563 19.558593-26.363282 23 .488282-1.941407.742188-3.929688.761719-5.929688v-17.070312c0-4.710938-3.820313-8.53125-8.53125-8.53125-4.714844 0-8.535156 3.820312-8.535156 8.53125v17.070312c0 4.710938-3.820313 8.53125-8.53125 8.53125-4.714844 0-8.535157-3.820312-8.535157-8.53125v-17.070312c0-4.710938-3.820312-8.53125-8.53125-8.53125-4.714843 0-8.535156 3.820312-8.535156 8.53125v17.070312c.019532 2 .277344 3.988281.765625 5.929688-14.886719-3.445313-26.363281-10.578125-26.363281-23 0-19.199219 23.625-42.664063 51.199219-42.664063s51.199219 23.460938 51.199219 42.664063zm-17.238282-98.121094c-14.015625-2.644531-28.234375-4.078125-42.496094-4.277344-3.046874 0-5.863281 1.625-7.390624 4.265625-1.523438 2.640625-1.523438 5.890625 0 8.53125 1.523437 2.640625 4.339843 4.269532 7.386718 4.269532 14.058594.25 28.066406 1.742187 41.859375 4.46875-1.128906 9.066406-3.574219 17.917968-7.265625 26.277343-8.273437-3.382812-17.121094-5.128906-26.054687-5.144531-38.445313 0-68.265625 32.105469-68.265625 59.730469-.03125 4.890625.972656 9.730469 2.941406 14.207031-28.765625 7.832031-58.46875 11.667969-88.277344 11.394531-29.808594.273438-59.511718-3.5625-88.273437-11.394531 1.96875-4.476562 2.96875-9.316406 2.941406-14.207031 0-27.625-29.820313-59.730469-68.265625-59.730469-8.9375.015625-17.785156 1.761719-26.054688 5.144531-3.691406-8.359375-6.140624-17.210937-7.269531-26.277343 13.792969-2.726563 27.800781-4.21875 41.859375-4.46875 4.714844 0 8.535156-3.820313 8.53125-8.535157 0-4.710937-3.820312-8.53125-8.535156-8.53125-14.261719.199219-28.476562 1.632813-42.492188 4.277344.457032-11.566406 2.433594-23.019531 5.886719-34.070313 17.273438 3.417969 33.75 10.054688 48.570313 19.5625 3.773437 2.71875 9.03125 1.914063 11.816406-1.8125 2.789062-3.722656 2.078125-8.992187-1.59375-11.847656-16.003906-10.648437-33.898438-18.140625-52.714844-22.070312 3.496094-8.066406 7.589844-15.859375 12.242188-23.3125 1.34375-2.148438 1.664062-4.777344.878906-7.179688-15.640625-47.898437-21.113281-96.859375-12.203125-109.140625.839844-1.402343 2.382813-2.222656 4.011719-2.128906 12.429687 1.382813 24.386718 5.574219 34.960937 12.257813 7.863281 4.097656 16.351563 9.132812 24.769531 14.492187v29.039063c.148438 9.527343 5.109376 18.335937 13.179688 23.402343 6.207031 4.097657 13.488281 6.265625 20.925781 6.230469 5.050781.003906 10.050781-.976562 14.726563-2.894531l30.890625-12.710938c3.167969 4.703125 8.472656 7.527344 14.144531 7.527344h34.132812c5.675782 0 10.976563-2.824219 14.148438-7.527344l30.890625 12.710938c4.671875 1.914062 9.675781 2.898437 14.722656 2.890625 7.4375.035156 14.71875-2.132813 20.925781-6.230469 8.070313-5.066406 13.03125-13.871094 13.179688-23.398437v-28.875c8.773438-5.605469 17.152344-10.597657 24.808594-14.59375 10.726562-6.539063 22.714844-10.738282 35.179687-12.320313 1.613281-.089844 3.144531.722656 3.96875 2.113281 8.960938 12.359375 3.464844 61.472656-12.246093 109.492188-.785157 2.402344-.46875 5.03125.871093 7.179687 4.582031 7.351563 8.617188 15.03125 12.066407 22.976563-18.8125 3.933594-36.699219 11.421875-52.699219 22.070312-3.714844 2.839844-4.453125 8.144532-1.652344 11.886719 2.804687 3.746094 8.097656 4.539063 11.871094 1.777344 14.820312-9.511719 31.296875-16.148438 48.574219-19.566407 3.453124 11.050782 5.433593 22.503907 5.886718 34.070313zm0 0"/><path d="m281.640625 392.433594c-4.710937 0-8.53125 3.820312-8.53125 8.53125v8.535156c0 9.425781-7.640625 17.066406-17.066406 17.066406s-17.066407-7.640625-17.066407-17.066406v-18.671875c3-1.105469 5.710938-2.882813 7.925782-5.191406l12.789062-13.652344c4.832032-4.960937 6.199219-12.339844 3.46875-18.703125-3.660156-7.617188-11.484375-12.347656-19.929687-12.046875h-25.574219c-8.449219-.300781-16.269531 4.429687-19.929688 12.046875-2.734374 6.363281-1.367187 13.742188 3.464844 18.703125l12.792969 13.652344c2.210937 2.308593 4.921875 4.085937 7.925781 5.191406v18.671875c0 9.425781-7.640625 17.066406-17.066406 17.066406s-17.066406-7.640625-17.066406-17.066406v-8.535156c0-4.710938-3.820313-8.53125-8.535156-8.53125-4.710938 0-8.535157 3.820312-8.535157 8.53125v8.535156c.042969 13 7.480469 24.847656 19.175781 30.53125 5.351563 23.972656 19.859376 37.734375 40.558594 37.734375 10.964844 0 30.070313-4.976563 38.714844-36.769531 12.714844-5.304688 21-17.722656 21.019531-31.496094v-8.535156c0-4.710938-3.820312-8.53125-8.535156-8.53125zm-68.273437-32.316406c.105468-.402344 1.375-1.816407 4.289062-1.816407h25.574219c2.910156 0 4.179687 1.414063 4.003906 2.015625l-12.792969 13.65625c-2.386718 1.722656-5.609375 1.722656-8 0zm17.074218 100.582031c-10.4375-.152344-19.464844-7.304688-22-17.429688 8.515625-.894531 16.375-4.980469 22-11.433593 5.1875 5.980468 12.304688 9.957031 20.117188 11.242187-4.46875 11.640625-11.183594 17.621094-20.117188 17.621094zm0 0"/><path d="m179.234375 332.699219c2.578125.003906 5.015625-1.160157 6.636719-3.160157 1.625-2.003906 2.253906-4.632812 1.714844-7.152343-2.910157-11.539063-10.410157-21.386719-20.757813-27.265625-13.28125-7.144532-30.242187-6.777344-50.421875 1.09375-4.390625 1.714844-6.5625 6.664062-4.847656 11.054687s6.664062 6.5625 11.054687 4.847657c15.1875-5.941407 27.292969-6.640626 35.949219-2.058594 6.054688 3.484375 10.488281 9.214844 12.347656 15.949218.863282 3.90625 4.324219 6.6875 8.324219 6.691407zm0 0"/><path d="m344.480469 296.214844c-20.171875-7.878906-37.144531-8.242188-50.425781-1.09375-10.347657 5.875-17.84375 15.726562-20.757813 27.261718-.660156 2.992188.335937 6.105469 2.605469 8.160157 2.269531 2.054687 5.46875 2.738281 8.378906 1.785156 2.910156-.949219 5.089844-3.386719 5.707031-6.386719 1.824219-6.65625 6.191407-12.332031 12.164063-15.796875 8.660156-4.675781 20.816406-4.007812 36.117187 1.964844 4.390625 1.714844 9.339844-.457031 11.054688-4.847656 1.714843-4.390625-.453125-9.339844-4.84375-11.054688zm0 0"/></svg>